<svg width="48" height="60" viewBox="0 0 48 60" fill="none" xmlns="http://www.w3.org/2000/svg">
<g filter="url(#filter0_b_113_485)">
<mask id="path-1-inside-1_113_485" fill="white">
<path d="M0 4C0 1.79086 1.79086 0 4 0H44C46.2091 0 48 1.79086 48 4V56C48 58.2091 46.2091 60 44 60H4C1.79086 60 0 58.2091 0 56V4Z"/>
</mask>
<path d="M0 4C0 1.79086 1.79086 0 4 0H44C46.2091 0 48 1.79086 48 4V56C48 58.2091 46.2091 60 44 60H4C1.79086 60 0 58.2091 0 56V4Z" fill="url(#paint0_linear_113_485)" fill-opacity="0.04"/>
<path d="M0 0H48H0ZM48 56C48 58.7614 45.7614 61 43 61H5C2.23858 61 0 58.7614 0 56C0 57.6569 1.79086 59 4 59H44C46.2091 59 48 57.6569 48 56ZM0 60V0V60ZM48 0V60V0Z" fill="white" fill-opacity="0.09" mask="url(#path-1-inside-1_113_485)"/>
<path d="M23.9253 49.5604C23.7505 49.5604 23.5828 49.4909 23.4591 49.3672C23.3355 49.2436 23.266 49.0759 23.266 48.901V39.9779C23.266 39.8031 23.3355 39.6354 23.4591 39.5117C23.5828 39.3881 23.7505 39.3186 23.9253 39.3186C24.1002 39.3186 24.2679 39.3881 24.3916 39.5117C24.5152 39.6354 24.5847 39.8031 24.5847 39.9779V48.8834C24.587 48.9715 24.5717 49.0591 24.5396 49.1412C24.5075 49.2232 24.4593 49.298 24.3979 49.3611C24.3364 49.4242 24.2629 49.4743 24.1818 49.5085C24.1006 49.5428 24.0134 49.5604 23.9253 49.5604Z" fill="#F1F1F1"/>
<path d="M23.9253 49.5603C23.7632 49.5606 23.6067 49.5011 23.4857 49.3933L19.5297 45.9296C19.4647 45.8718 19.4118 45.8019 19.3739 45.7237C19.336 45.6455 19.3139 45.5607 19.3088 45.4739C19.3037 45.3872 19.3157 45.3003 19.3442 45.2182C19.3726 45.1361 19.417 45.0604 19.4747 44.9955C19.5325 44.9306 19.6024 44.8776 19.6806 44.8397C19.7588 44.8018 19.8437 44.7797 19.9304 44.7746C20.0171 44.7695 20.104 44.7815 20.1861 44.81C20.2682 44.8385 20.3439 44.8828 20.4088 44.9406L24.3648 48.4043C24.4304 48.4607 24.4841 48.5295 24.5229 48.6067C24.5617 48.6839 24.5848 48.7681 24.591 48.8543C24.5971 48.9405 24.5861 49.0271 24.5586 49.109C24.5311 49.191 24.4877 49.2667 24.4308 49.3318C24.3678 49.4039 24.2901 49.4616 24.2029 49.501C24.1157 49.5404 24.021 49.5607 23.9253 49.5603Z" fill="#F1F1F1"/>
<path d="M23.9253 49.5603C23.7906 49.5616 23.6588 49.5215 23.5475 49.4455C23.4362 49.3695 23.3509 49.2613 23.3031 49.1354C23.2552 49.0094 23.247 48.8719 23.2797 48.7412C23.3124 48.6104 23.3843 48.4929 23.4858 48.4043L27.4418 44.9406C27.5068 44.8828 27.5824 44.8385 27.6645 44.81C27.7466 44.7815 27.8335 44.7695 27.9202 44.7746C28.007 44.7797 28.0918 44.8018 28.17 44.8397C28.2482 44.8776 28.3182 44.9306 28.3759 44.9955C28.4336 45.0604 28.478 45.1361 28.5065 45.2182C28.5349 45.3003 28.547 45.3872 28.5419 45.4739C28.5368 45.5607 28.5146 45.6455 28.4767 45.7237C28.4388 45.8019 28.3859 45.8718 28.3209 45.9296L24.3649 49.3933C24.2446 49.5022 24.0876 49.5618 23.9253 49.5603Z" fill="#F1F1F1"/>
<path d="M26.3561 36.6946H21.4902C19.7294 36.6923 18.0414 35.9918 16.7963 34.7467C15.5512 33.5016 14.8507 31.8136 14.8484 30.0528V17.3056C14.8467 16.4319 15.0171 15.5663 15.35 14.7585C15.6829 13.9507 16.1717 13.2164 16.7885 12.5975C17.4053 11.9787 18.138 11.4874 18.9448 11.1519C19.7515 10.8163 20.6164 10.643 21.4902 10.6419H26.3561C27.2292 10.6407 28.0941 10.8116 28.9012 11.1448C29.7082 11.478 30.4417 11.967 31.0598 12.5838C31.6778 13.2006 32.1682 13.9331 32.503 14.7396C32.8378 15.546 33.0105 16.4105 33.011 17.2836V30.0528C33.0105 30.926 32.8378 31.7905 32.503 32.5969C32.1682 33.4033 31.6778 34.1358 31.0598 34.7526C30.4417 35.3695 29.7082 35.8584 28.9012 36.1916C28.0941 36.5248 27.2292 36.6958 26.3561 36.6946ZM21.4902 11.9605C20.0787 11.9617 18.7255 12.5229 17.7275 13.5209C16.7294 14.5189 16.1682 15.8722 16.1671 17.2836V30.0528C16.1694 31.4639 16.731 32.8165 17.7287 33.8143C18.7265 34.812 20.0791 35.3736 21.4902 35.3759H26.3561C27.0561 35.3771 27.7494 35.2403 28.3965 34.9733C29.0436 34.7064 29.6317 34.3146 30.1273 33.8202C30.6229 33.3259 31.0162 32.7387 31.2847 32.0923C31.5533 31.4458 31.6918 30.7528 31.6924 30.0528V17.3056C31.6947 16.6038 31.5583 15.9084 31.2911 15.2594C31.0238 14.6105 30.631 14.0207 30.1351 13.524C29.6392 13.0273 29.0501 12.6335 28.4016 12.3652C27.7531 12.0969 27.0579 11.9594 26.3561 11.9605H21.4902Z" fill="#F1F1F1"/>
<path d="M23.9253 21.5912C23.7505 21.5912 23.5828 21.5218 23.4591 21.3981C23.3355 21.2745 23.266 21.1067 23.266 20.9319V17.622C23.266 17.4471 23.3355 17.2794 23.4591 17.1558C23.5828 17.0321 23.7505 16.9626 23.9253 16.9626C24.1002 16.9626 24.2679 17.0321 24.3916 17.1558C24.5152 17.2794 24.5847 17.4471 24.5847 17.622V20.9319C24.5847 21.1067 24.5152 21.2745 24.3916 21.3981C24.2679 21.5218 24.1002 21.5912 23.9253 21.5912Z" fill="#F1F1F1"/>
</g>
<defs>
<filter id="filter0_b_113_485" x="-15" y="-15" width="78" height="90" filterUnits="userSpaceOnUse" color-interpolation-filters="sRGB">
<feFlood flood-opacity="0" result="BackgroundImageFix"/>
<feGaussianBlur in="BackgroundImageFix" stdDeviation="7.5"/>
<feComposite in2="SourceAlpha" operator="in" result="effect1_backgroundBlur_113_485"/>
<feBlend mode="normal" in="SourceGraphic" in2="effect1_backgroundBlur_113_485" result="shape"/>
</filter>
<linearGradient id="paint0_linear_113_485" x1="24" y1="58" x2="24" y2="18.5" gradientUnits="userSpaceOnUse">
<stop stop-color="white"/>
<stop offset="1" stop-color="white" stop-opacity="0"/>
</linearGradient>
</defs>
</svg>
