<svg width="28" height="28" viewBox="0 0 28 28" fill="none" xmlns="http://www.w3.org/2000/svg">
<path d="M24.7243 4.38356C24.335 4.02687 23.7817 3.90801 23.2802 4.07328L2.00343 11.087C1.42357 11.2781 1.03035 11.7958 1.00166 12.4056C0.973024 13.0154 1.31591 13.5677 1.87521 13.8125L7.13712 16.1147C7.16279 16.2338 8.67333 23.2397 8.7247 23.4779C8.79063 23.7838 8.94589 24.0562 9.27478 24.14C9.60746 24.2248 9.8425 24.0429 10.0907 23.8571C10.2289 23.7537 13.9955 20.9332 13.9955 20.9332L18.5605 24.6688C18.8264 24.8865 19.1514 25 19.4827 25C19.6405 25 19.7997 24.9742 19.9547 24.9217C20.4351 24.7588 20.7913 24.3666 20.9074 23.8728L25.1594 5.79499C25.2803 5.28102 25.1136 4.74025 24.7243 4.38356ZM10.4309 17.4339C10.4283 17.4401 10.4257 17.447 10.4233 17.4553L9.54309 20.5306L8.5608 15.9748L15.3153 12.2219L10.5929 17.1598C10.5185 17.2375 10.4638 17.3316 10.4309 17.4339ZM10.7102 21.6178L11.11 20.221L11.4924 18.8849L12.8626 20.0062L10.7102 21.6178ZM23.7759 5.46954L19.524 23.5474C19.5219 23.5563 19.5191 23.5687 19.4983 23.5758C19.4777 23.5828 19.4676 23.5748 19.4606 23.5689L14.4654 19.4813C14.4652 19.4812 14.4651 19.4811 14.465 19.481L12.1506 17.5871L19.586 9.81259C19.8289 9.55865 19.8497 9.16539 19.6349 8.88725C19.4201 8.60906 19.0344 8.52962 18.7273 8.70033L7.7176 14.8174L2.4449 12.5104C2.42884 12.5034 2.42 12.4995 2.42127 12.4723C2.42255 12.4452 2.43172 12.4422 2.44836 12.4367L23.7251 5.42299C23.7354 5.41964 23.7471 5.41576 23.7642 5.43136C23.7813 5.44705 23.7785 5.45896 23.7759 5.46954Z" fill="#F1F1F1"/>
</svg>
